<svg data-v-423bf9ae="" xmlns="http://www.w3.org/2000/svg" viewBox="0 0 295.28924310576247 60" class="font"><!----><!----><!----><g data-v-423bf9ae="" id="443ced6a-2230-41b7-94b3-46c7eccc771f" fill="white" transform="matrix(4.958677529621045,0,0,4.958677529621045,-0.7438038364131216,-17.256198374497664)"><path d="M4.02 3.48L4.02 3.48L4.02 3.48Q3.68 3.49 3.46 3.64L3.46 3.64L3.46 3.64Q3.25 3.80 2.00 5.41L2.00 5.41L2.28 5.63L2.28 5.63Q2.70 5.11 2.97 4.95L2.97 4.95L2.97 4.95Q3.24 4.79 3.36 5.36L3.36 5.36L2.32 8.38L1.69 8.38L0.29 9.75L0.42 9.97L0.42 9.97Q1.13 9.82 1.66 9.86L1.66 9.86L1.66 9.86Q1.32 10.79 1.02 11.34L1.02 11.34L1.02 11.34Q0.72 11.88 0.15 12.38L0.15 12.38L0.25 12.69L2.47 12.68L3.45 11.39L3.35 11.27L1.66 11.26L1.66 11.26Q2.15 11.01 2.66 9.86L2.66 9.86L4.01 9.85L4.70 9.12L4.70 9.12Q5.59 11.66 6.00 12.16L6.00 12.16L6.00 12.16Q6.41 12.67 6.86 12.78L6.86 12.78L7.92 11.53L7.92 11.53Q7.12 11.35 5.96 7.69L5.96 7.69L5.96 7.69Q4.81 4.03 4.59 3.75L4.59 3.75L4.59 3.75Q4.37 3.48 4.02 3.48ZM3.81 6.47L4.48 8.44L3.14 8.43L3.81 6.47ZM12.39 12.76L14.06 11.54L13.90 11.31L13.90 11.31Q13.45 11.40 13.45 10.68L13.45 10.68L13.45 10.68Q13.52 7.72 13.43 7.27L13.43 7.27L13.43 7.27Q13.34 6.82 12.77 6.47L12.77 6.47L11.32 7.72L11.39 7.85L11.39 7.85Q11.79 7.65 11.91 8.33L11.91 8.33L11.91 8.33Q12.02 9.02 11.95 10.91L11.95 10.91L11.95 10.91Q11.07 11.70 10.47 11.47L10.47 11.47L10.47 11.47Q9.86 11.25 9.87 9.81L9.87 9.81L9.87 9.81Q9.91 7.76 9.86 7.27L9.86 7.27L9.86 7.27Q9.81 6.78 9.27 6.42L9.27 6.42L7.85 7.69L7.98 7.85L7.98 7.85Q8.24 7.66 8.33 8.36L8.33 8.36L8.33 8.36Q8.42 9.07 8.36 10.51L8.36 10.51L8.36 10.51Q8.30 11.39 8.52 11.88L8.52 11.88L8.52 11.88Q8.74 12.38 9.36 12.63L9.36 12.63L9.36 12.63Q9.98 12.87 10.51 12.61L10.51 12.61L10.51 12.61Q11.05 12.35 11.39 12.07L11.39 12.07L11.39 12.07Q11.74 11.78 11.92 11.57L11.92 11.57L11.92 11.57Q11.86 12.41 12.39 12.76L12.39 12.76ZM16.50 3.70L15.26 4.68L15.26 4.68Q15.66 4.64 15.48 6.90L15.48 6.90L15.04 6.91L14.05 8.26L14.27 8.45L14.27 8.45Q14.59 8.09 15.44 8.13L15.44 8.13L15.44 8.13Q15.32 11.08 15.45 11.67L15.45 11.67L15.45 11.67Q15.57 12.25 16.25 12.72L16.25 12.72L16.25 12.72Q17.19 12.24 18.50 11.16L18.50 11.16L18.38 10.63L18.38 10.63Q16.91 11.38 16.82 10.75L16.82 10.75L16.82 10.75Q16.73 10.13 16.80 8.13L16.80 8.13L17.66 8.13L18.55 7.02L18.50 6.88L16.83 6.86L16.91 4.57L16.91 4.57Q16.83 3.98 16.50 3.70L16.50 3.70ZM21.31 6.49L21.31 6.49Q20.17 7.24 19.69 7.80L19.69 7.80L19.69 7.80Q19.22 8.35 19.02 8.92L19.02 8.92L19.02 8.92Q18.83 9.48 18.96 10.33L18.96 10.33L18.96 10.33Q19.09 11.18 19.95 11.96L19.95 11.96L19.95 11.96Q20.82 12.75 21.34 12.75L21.34 12.75L21.34 12.75Q21.86 12.76 22.98 11.74L22.98 11.74L22.98 11.74Q23.41 11.35 23.73 10.91L23.73 10.91L23.73 10.91Q24.06 10.47 24.21 9.67L24.21 9.67L24.21 9.67Q24.36 8.87 23.95 7.90L23.95 7.90L23.95 7.90Q22.91 6.30 21.31 6.49L21.31 6.49ZM21.09 7.70L21.09 7.70L21.09 7.70Q21.96 7.83 22.46 8.81L22.46 8.81L22.46 8.81Q22.97 9.79 22.80 10.78L22.80 10.78L22.80 10.78Q22.63 11.76 21.75 11.29L21.75 11.29L21.75 11.29Q20.87 10.81 20.43 10.00L20.43 10.00L20.43 10.00Q19.98 9.19 20.10 8.37L20.10 8.37L20.10 8.37Q20.22 7.56 21.09 7.70ZM29.23 8.00L29.23 5.21L29.23 5.21Q29.78 4.61 30.53 4.96L30.53 4.96L30.53 4.96Q31.28 5.31 31.10 6.21L31.10 6.21L31.10 6.21Q30.92 7.10 30.28 7.41L30.28 7.41L29.23 8.00ZM29.22 4.65L29.22 4.65L29.22 4.65Q29.09 3.88 28.51 3.56L28.51 3.56L27.16 4.71L27.19 4.87L27.19 4.87Q27.54 4.97 27.62 5.61L27.62 5.61L27.62 11.22L27.62 11.22Q27.69 11.91 28.01 12.27L28.01 12.27L28.01 12.27Q28.34 12.63 28.58 12.64L28.58 12.64L28.58 12.64Q29.92 11.76 29.99 11.74L29.99 11.74L29.87 11.48L29.87 11.48Q29.25 11.47 29.24 10.93L29.24 10.93L29.24 8.48L29.24 8.48Q30.41 8.17 31.50 11.86L31.50 11.86L31.50 11.86Q31.94 12.71 32.70 12.70L32.70 12.70L33.95 11.48L33.84 11.24L33.84 11.24Q33.01 11.67 32.42 9.65L32.42 9.65L32.42 9.65Q31.83 7.64 30.63 7.68L30.63 7.68L30.63 7.68Q32.02 7.29 32.39 6.42L32.39 6.42L32.39 6.42Q32.76 5.55 32.44 4.66L32.44 4.66L32.44 4.66Q32.13 3.77 30.98 3.59L30.98 3.59L30.98 3.59Q29.83 3.41 29.22 4.65ZM37.19 6.60L37.19 6.60L37.19 6.60Q36.13 6.43 35.20 7.26L35.20 7.26L35.20 7.26Q34.27 8.09 34.01 9.20L34.01 9.20L34.01 9.20Q33.75 10.31 34.17 11.26L34.17 11.26L34.17 11.26Q34.59 12.22 35.73 12.62L35.73 12.62L35.73 12.62Q36.66 12.93 37.67 12.18L37.67 12.18L37.67 12.18Q38.67 11.43 38.99 10.77L38.99 10.77L38.78 10.61L38.78 10.61Q37.40 11.56 36.58 11.24L36.58 11.24L36.58 11.24Q35.77 10.92 35.62 10.51L35.62 10.51L37.11 9.54L37.11 9.54Q38.55 8.65 38.40 7.70L38.40 7.70L38.40 7.70Q38.26 6.76 37.19 6.60ZM35.11 8.64L35.11 8.64L35.11 8.64Q35.09 8.14 35.46 7.78L35.46 7.78L35.46 7.78Q35.83 7.41 36.44 7.78L36.44 7.78L36.44 7.78Q37.05 8.15 36.96 8.76L36.96 8.76L36.96 8.76Q36.86 9.37 35.42 10.14L35.42 10.14L35.42 10.14Q35.26 9.80 35.19 9.47L35.19 9.47L35.19 9.47Q35.12 9.14 35.11 8.64ZM40.95 6.58L39.40 7.85L39.46 8.07L39.46 8.07Q40.02 7.59 39.83 10.69L39.83 10.69L39.25 11.17L39.25 11.17Q39.46 11.39 39.85 11.69L39.85 11.69L39.85 11.69Q39.70 14.22 40.04 14.82L40.04 14.82L40.04 14.82Q40.39 15.42 40.99 15.58L40.99 15.58L42.24 14.32L42.11 14.10L42.11 14.10Q41.25 14.38 41.36 12.28L41.36 12.28L41.36 12.28Q42.13 12.50 42.83 12.09L42.83 12.09L42.83 12.09Q43.52 11.69 44.17 10.87L44.17 10.87L44.17 10.87Q44.82 10.05 45.01 9.45L45.01 9.45L45.01 9.45Q45.19 8.85 44.82 7.81L44.82 7.81L44.82 7.81Q44.44 6.77 42.90 6.49L42.90 6.49L41.47 7.72L41.47 7.72Q41.51 7.02 40.95 6.58L40.95 6.58ZM42.05 7.92L42.05 7.92Q43.05 8.03 43.46 9.19L43.46 9.19L43.46 9.19Q43.87 10.34 43.42 11.06L43.42 11.06L43.42 11.06Q42.96 11.77 41.47 10.75L41.47 10.75L41.45 8.14L42.05 7.92ZM48.62 6.49L48.62 6.49L48.62 6.49Q47.61 6.45 46.55 7.15L46.55 7.15L46.55 7.15Q45.48 7.85 46.09 9.02L46.09 9.02L47.62 8.13L47.62 8.13Q46.94 7.09 48.20 7.06L48.20 7.06L48.20 7.06Q49.46 7.03 49.31 8.76L49.31 8.76L47.10 8.80L45.40 10.71L45.40 10.71Q45.33 11.55 46.00 12.14L46.00 12.14L46.00 12.14Q46.66 12.73 47.32 12.70L47.32 12.70L47.32 12.70Q47.97 12.67 48.44 12.39L48.44 12.39L48.44 12.39Q48.90 12.10 49.36 11.57L49.36 11.57L49.36 11.57Q49.52 12.52 50.47 12.69L50.47 12.69L51.68 11.38L51.60 11.21L51.60 11.21Q51.04 11.33 50.89 10.58L50.89 10.58L50.90 8.16L50.90 8.16Q50.83 7.23 50.22 6.88L50.22 6.88L50.22 6.88Q49.62 6.53 48.62 6.49ZM46.79 9.88L49.30 9.88L49.30 11.11L49.30 11.11Q49.05 11.42 48.16 11.39L48.16 11.39L48.16 11.39Q47.26 11.35 46.54 10.12L46.54 10.12L46.79 9.88ZM53.18 3.68L51.82 4.86L51.82 4.86Q52.45 5.30 52.78 5.91L52.78 5.91L52.78 5.91Q53.93 5.15 54.07 4.96L54.07 4.96L54.07 4.96Q54.21 4.76 54.00 4.31L54.00 4.31L54.00 4.31Q53.79 3.86 53.18 3.68L53.18 3.68ZM52.03 7.76L52.03 7.76Q52.61 7.43 52.41 9.23L52.41 9.23L52.41 9.23Q52.38 11.37 52.42 11.88L52.42 11.88L52.42 11.88Q52.47 12.39 53.03 12.72L53.03 12.72L54.39 11.45L54.40 11.27L54.40 11.27Q54.02 11.29 53.94 10.76L53.94 10.76L53.94 10.76Q53.85 10.23 53.89 8.94L53.89 8.94L53.89 8.94Q53.93 7.65 53.91 7.25L53.91 7.25L53.91 7.25Q53.89 6.85 53.54 6.45L53.54 6.45L51.92 7.57L52.03 7.76ZM56.49 6.42L54.81 7.64L54.97 7.87L54.97 7.87Q55.47 7.56 55.42 8.50L55.42 8.50L55.42 8.50Q55.35 11.46 55.44 11.91L55.44 11.91L55.44 11.91Q55.53 12.37 56.10 12.71L56.10 12.71L57.55 11.46L57.55 11.29L57.55 11.29Q57.09 11.40 56.97 10.78L56.97 10.78L56.97 10.78Q56.85 10.17 56.92 8.27L56.92 8.27L56.92 8.27Q57.80 7.48 58.46 8.43L58.46 8.43L59.70 7.29L59.70 7.29Q58.92 6.25 58.29 6.49L58.29 6.49L58.29 6.49Q57.66 6.72 56.95 7.62L56.95 7.62L56.95 7.62Q57.01 6.77 56.49 6.42L56.49 6.42Z"></path></g><!----><!----></svg>