<svg data-v-423bf9ae="" xmlns="http://www.w3.org/2000/svg" viewBox="0 0 55.07772116308737 60" class="font"><!----><!----><!----><g data-v-423bf9ae="" id="a81f8cd3-b486-41a6-aab7-53aa24a01552" fill="black" transform="matrix(5.181347184395977,0,0,5.181347184395977,-3.419689836109569,-27.61657914385082)"><path d="M9.06 11.96L9.06 11.96L9.06 11.96Q8.92 12.09 8.76 12.23L8.76 12.23L8.76 12.23Q8.61 12.36 8.43 12.50L8.43 12.50L8.43 12.50Q8.60 12.91 8.77 13.29L8.77 13.29L8.77 13.29Q8.93 13.67 9.08 13.99L9.08 13.99L9.08 13.99Q9.23 14.31 9.36 14.55L9.36 14.55L9.36 14.55Q9.49 14.79 9.59 14.93L9.59 14.93L9.59 14.93Q9.73 15.13 9.91 15.28L9.91 15.28L9.91 15.28Q10.07 15.41 10.28 15.51L10.28 15.51L10.28 15.51Q10.49 15.62 10.74 15.62L10.74 15.62L10.74 15.62Q10.99 15.62 11.29 15.45L11.29 15.45L11.29 15.45Q11.04 15.71 10.76 15.96L10.76 15.96L10.76 15.96Q10.49 16.21 10.18 16.41L10.18 16.41L10.18 16.41Q9.88 16.60 9.55 16.73L9.55 16.73L9.55 16.73Q9.23 16.85 8.89 16.85L8.89 16.85L8.89 16.85Q8.63 16.85 8.41 16.70L8.41 16.70L8.41 16.70Q8.19 16.54 7.98 16.15L7.98 16.15L7.98 16.15Q7.90 16.03 7.78 15.76L7.78 15.76L7.78 15.76Q7.66 15.49 7.50 15.12L7.50 15.12L7.50 15.12Q7.33 14.75 7.14 14.29L7.14 14.29L7.14 14.29Q6.95 13.84 6.75 13.34L6.75 13.34L6.75 13.34Q6.32 13.47 5.81 13.54L5.81 13.54L5.81 13.54Q5.31 13.62 4.73 13.62L4.73 13.62L2.71 13.62L2.15 14.93L2.15 14.93Q2.11 15.06 2.09 15.19L2.09 15.19L2.09 15.19Q2.07 15.33 2.11 15.44L2.11 15.44L2.11 15.44Q2.15 15.54 2.27 15.62L2.27 15.62L2.27 15.62Q2.39 15.69 2.63 15.69L2.63 15.69L2.63 15.69Q2.77 15.69 2.94 15.66L2.94 15.66L2.94 15.66Q3.11 15.63 3.33 15.58L3.33 15.58L3.33 15.58Q2.95 15.94 2.67 16.19L2.67 16.19L2.67 16.19Q2.39 16.45 2.13 16.60L2.13 16.60L2.13 16.60Q1.88 16.76 1.62 16.83L1.62 16.83L1.62 16.83Q1.36 16.91 1.03 16.91L1.03 16.91L1.03 16.91Q0.83 16.91 0.74 16.81L0.74 16.81L0.74 16.81Q0.66 16.71 0.66 16.54L0.66 16.54L0.66 16.54Q0.66 16.32 0.77 16.01L0.77 16.01L0.77 16.01Q0.88 15.70 1.05 15.31L1.05 15.31L1.05 15.31Q1.20 14.96 1.61 14.02L1.61 14.02L1.61 14.02Q1.79 13.62 2.04 13.04L2.04 13.04L2.04 13.04Q2.30 12.47 2.65 11.69L2.65 11.69L2.65 11.69Q2.99 10.90 3.44 9.88L3.44 9.88L3.44 9.88Q3.89 8.87 4.46 7.58L4.46 7.58L4.79 7.31L4.79 7.31Q4.79 7.10 4.82 6.95L4.82 6.95L4.82 6.95Q4.85 6.79 4.92 6.67L4.92 6.67L4.92 6.67Q4.98 6.55 5.07 6.45L5.07 6.45L5.07 6.45Q5.16 6.36 5.26 6.27L5.26 6.27L5.26 6.27Q5.39 6.17 5.56 6.03L5.56 6.03L5.56 6.03Q5.84 5.80 6.40 5.33L6.40 5.33L6.40 5.33Q6.32 5.49 6.29 5.68L6.29 5.68L6.29 5.68Q6.25 5.88 6.25 6.07L6.25 6.07L6.25 6.07Q6.25 6.27 6.28 6.45L6.28 6.45L6.28 6.45Q6.30 6.63 6.32 6.77L6.32 6.77L6.32 6.77Q6.35 6.93 6.40 7.07L6.40 7.07L6.40 7.07Q6.47 7.31 6.66 7.85L6.66 7.85L6.66 7.85Q6.84 8.38 7.10 9.07L7.10 9.07L7.10 9.07Q7.36 9.77 7.66 10.55L7.66 10.55L7.66 10.55Q7.96 11.34 8.26 12.09L8.26 12.09L8.26 12.09Q8.46 12.07 8.61 12.04L8.61 12.04L8.61 12.04Q8.76 12.01 8.86 12.00L8.86 12.00L8.86 12.00Q8.98 11.98 9.06 11.96ZM4.98 8.62L4.98 8.62L4.98 8.62Q4.50 9.68 4.07 10.61L4.07 10.61L4.07 10.61Q3.64 11.53 3.25 12.44L3.25 12.44L3.25 12.44Q4.16 12.42 4.93 12.38L4.93 12.38L4.93 12.38Q5.69 12.34 6.32 12.28L6.32 12.28L6.32 12.28Q6.10 11.75 5.90 11.22L5.90 11.22L5.90 11.22Q5.69 10.69 5.52 10.21L5.52 10.21L5.52 10.21Q5.35 9.73 5.21 9.32L5.21 9.32L5.21 9.32Q5.07 8.91 4.98 8.62Z"></path></g><!----><!----></svg>